<?xml version="1.0" encoding="UTF-8" standalone="no"?>
<!-- Created with Inkscape (http://www.inkscape.org/) -->

<svg
   xmlns:dc="http://purl.org/dc/elements/1.1/"
   xmlns:cc="http://creativecommons.org/ns#"
   xmlns:rdf="http://www.w3.org/1999/02/22-rdf-syntax-ns#"
   xmlns:svg="http://www.w3.org/2000/svg"
   xmlns="http://www.w3.org/2000/svg"
   xmlns:sodipodi="http://sodipodi.sourceforge.net/DTD/sodipodi-0.dtd"
   xmlns:inkscape="http://www.inkscape.org/namespaces/inkscape"
   width="80"
   height="80"
   id="svg5724"
   version="1.1"
   inkscape:version="0.48.4 r9939"
   sodipodi:docname="bear.svg">
  <defs
     id="defs5726" />
  <sodipodi:namedview
     id="base"
     pagecolor="#ffffff"
     bordercolor="#666666"
     borderopacity="1.0"
     inkscape:pageopacity="0.0"
     inkscape:pageshadow="2"
     inkscape:zoom="10.35"
     inkscape:cx="40"
     inkscape:cy="40"
     inkscape:document-units="px"
     inkscape:current-layer="layer1"
     showgrid="false"
     inkscape:window-width="1280"
     inkscape:window-height="1004"
     inkscape:window-x="1598"
     inkscape:window-y="-3"
     inkscape:window-maximized="1" />
  <metadata
     id="metadata5729">
    <rdf:RDF>
      <cc:Work
         rdf:about="">
        <dc:format>image/svg+xml</dc:format>
        <dc:type
           rdf:resource="http://purl.org/dc/dcmitype/StillImage" />
        <dc:title></dc:title>
      </cc:Work>
    </rdf:RDF>
  </metadata>
  <g
     inkscape:label="Layer 1"
     inkscape:groupmode="layer"
     id="layer1"
     transform="translate(0,-972.36218)">
    <g
       id="g6346"
       transform="translate(1.0628019,0)">
      <path
         d="m 48.143939,1026.8743 c 2.31924,6.4944 1.391425,15.0764 -9.277846,14.8444 -10.669569,-0.2319 -12.293244,-8.35 -9.509801,-16.7001 2.783146,-8.35 -8.350034,-10.4376 -14.38053,-10.9015 -5.0065794,-0.385 -7.7751914,7.7016 -10.0306584,7.8049 2.989295,6.419 13.8157734,26.0591 34.3848964,26.0591 22.058134,0 33.65878,-19.9747 34.30392,-28.7726 -2.972091,-0.2394 -2.767129,-4.6465 -11.341404,-5.3233 -8.813941,-0.6959 -16.468113,6.4947 -14.148577,12.9891"
         style="fill:#6d4d40;fill-opacity:1;fill-rule:nonzero;stroke:none"
         id="path5238"
         inkscape:connector-curvature="0" />
      <path
         d="m 50.695132,1016.4366 c -1.152946,0 -2.087582,-0.9346 -2.087582,-2.0875 0,-1.153 0.934636,-2.0873 2.087582,-2.0873 1.152946,0 2.087583,0.9343 2.087583,2.0873 0,1.1529 -0.934637,2.0875 -2.087583,2.0875 z m -6.494404,21.1069 c -1.391721,1.3918 -8.813939,1.6237 -10.205661,0 -1.391722,-1.6236 -1.391722,-6.0305 5.334933,-6.0305 5.334635,0 6.26245,4.6388 4.870728,6.0305 z M 27.96457,1016.4366 c -1.152946,0 -2.087583,-0.9346 -2.087583,-2.0875 0,-1.153 0.934637,-2.0873 2.087583,-2.0873 1.152946,0 2.087583,0.9343 2.087583,2.0873 0,1.1529 -0.934637,2.0875 -2.087583,2.0875 z m -24.3542374,4.4069 c 0.433355,0.7878 0.873237,1.0998 1.334771,1.0785 2.255467,-0.1033 5.024079,-8.1899 10.0306584,-7.8049 6.030496,0.4639 17.163676,2.5515 14.38053,10.9015 -2.783443,8.3501 -1.159768,16.4682 9.509801,16.7001 10.669271,0.232 11.597086,-8.35 9.277846,-14.8444 -2.319536,-6.4944 5.334636,-13.685 14.148577,-12.9891 8.574275,0.6768 8.369313,5.0839 11.341404,5.3233 0.08305,0.01 0.167588,0.012 0.255683,0.012 2.425724,0 0.838533,-12.2954 -3.600324,-21.03074 -0.521747,0.8181 -1.044087,1.371 -1.502359,1.5471 -3.015397,1.15984 -13.453012,-5.1026 -15.772252,-9.0459 -0.596494,-1.0138 -0.574545,-2.5087 -0.0442,-4.1208 -7.018524,-1.4451 -13.640473,-1.4457 -13.640473,-1.4457 -6.026345,0 -10.750249,0.8139 -14.581933,2.0324 0.354159,1.3846 0.307294,2.6446 -0.215936,3.5341 -2.319536,3.9433 -12.756854,10.20574 -15.7722507,9.0459 -0.442847,-0.1702 -0.945611,-0.6928 -1.449858,-1.4658 -4.017365,5.99284 -5.866765,18.63284 -3.699689,22.57274"
         style="fill:#94725b;fill-opacity:1;fill-rule:nonzero;stroke:none"
         id="path5240"
         inkscape:connector-curvature="0" />
      <path
         d="m 27.96457,1012.2618 c -1.152946,0 -2.087583,0.9343 -2.087583,2.0873 0,1.1529 0.934637,2.0875 2.087583,2.0875 1.152946,0 2.087583,-0.9346 2.087583,-2.0875 0,-1.153 -0.934637,-2.0873 -2.087583,-2.0873"
         style="fill:#241105;fill-opacity:1;fill-rule:nonzero;stroke:none"
         id="path5262"
         inkscape:connector-curvature="0" />
      <path
         d="m 50.695132,1012.2618 c -1.152946,0 -2.087582,0.9343 -2.087582,2.0873 0,1.1529 0.934636,2.0875 2.087582,2.0875 1.152946,0 2.087583,-0.9346 2.087583,-2.0875 0,-1.153 -0.934637,-2.0873 -2.087583,-2.0873"
         style="fill:#241105;fill-opacity:1;fill-rule:nonzero;stroke:none"
         id="path5264"
         inkscape:connector-curvature="0" />
      <path
         d="m 39.33,1031.513 c -6.726655,0 -6.726655,4.4069 -5.334933,6.0305 1.391722,1.6237 8.81394,1.3918 10.205661,0 1.391722,-1.3917 0.463907,-6.0305 -4.870728,-6.0305"
         style="fill:#241105;fill-opacity:1;fill-rule:nonzero;stroke:none"
         id="path5270"
         inkscape:connector-curvature="0" />
      <path
         d="m 67.163245,982.57256 c 4.175165,0.232 2.783443,16.7001 -6.494405,11.8294 -2.762976,-1.4505 2.319537,-12.0613 6.494405,-11.8294 z m -14.148577,8.1181 c 2.31924,3.9432 12.756855,10.20564 15.772252,9.0459 0.458272,-0.1762 0.980612,-0.7291 1.502359,-1.5472 2.910988,-4.5643 5.795578,-17.4315 -2.662127,-19.7917 -7.39938,-2.065 -13.132964,3.5381 -14.65668,8.1721 -0.530349,1.6121 -0.552298,3.1071 0.0442,4.1209"
         style="fill:#6d4d40;fill-opacity:1;fill-rule:nonzero;stroke:none"
         id="path5292"
         inkscape:connector-curvature="0" />
      <path
         d="m 60.66884,994.40196 c 9.277848,4.8707 10.66957,-11.5974 6.494405,-11.8294 -4.174868,-0.2319 -9.257381,10.3789 -6.494405,11.8294"
         style="fill:#4b3e3a;fill-opacity:1;fill-rule:nonzero;stroke:none"
         id="path5294"
         inkscape:connector-curvature="0" />
      <path
         d="m 10.383556,982.57256 c 4.174868,-0.2319 9.257379,10.3789 6.494404,11.8294 -9.2778484,4.8707 -10.6695694,-11.5974 -6.494404,-11.8294 z m -1.6236764,17.164 c 3.0153974,1.15974 13.4527154,-5.1027 15.7722514,-9.0459 0.52323,-0.8896 0.570095,-2.1496 0.215936,-3.5342 -1.209599,-4.7289 -7.11344,-10.9119 -14.8284194,-8.7588 -8.508722,2.3745 -5.538114,15.3825 -2.609626,19.873 0.504247,0.773 1.007011,1.2956 1.449858,1.4659"
         style="fill:#6d4d40;fill-opacity:1;fill-rule:nonzero;stroke:none"
         id="path5296"
         inkscape:connector-curvature="0" />
      <path
         d="m 16.87796,994.40196 c 2.762975,-1.4505 -2.319536,-12.0613 -6.494404,-11.8294 -4.1751654,0.232 -2.7834444,16.7001 6.494404,11.8294"
         style="fill:#4b3e3a;fill-opacity:1;fill-rule:nonzero;stroke:none"
         id="path5298"
         inkscape:connector-curvature="0" />
    </g>
  </g>
</svg>
