<?xml version="1.0" encoding="UTF-8" standalone="no"?>
<!-- Created with Inkscape (http://www.inkscape.org/) -->

<svg
   xmlns:dc="http://purl.org/dc/elements/1.1/"
   xmlns:cc="http://creativecommons.org/ns#"
   xmlns:rdf="http://www.w3.org/1999/02/22-rdf-syntax-ns#"
   xmlns:svg="http://www.w3.org/2000/svg"
   xmlns="http://www.w3.org/2000/svg"
   xmlns:sodipodi="http://sodipodi.sourceforge.net/DTD/sodipodi-0.dtd"
   xmlns:inkscape="http://www.inkscape.org/namespaces/inkscape"
   width="80"
   height="80"
   id="svg5492"
   version="1.1"
   inkscape:version="0.48.4 r9939"
   sodipodi:docname="boar.svg">
  <defs
     id="defs5494" />
  <sodipodi:namedview
     id="base"
     pagecolor="#ffffff"
     bordercolor="#666666"
     borderopacity="1.0"
     inkscape:pageopacity="0.0"
     inkscape:pageshadow="2"
     inkscape:zoom="10.35"
     inkscape:cx="40"
     inkscape:cy="40"
     inkscape:document-units="px"
     inkscape:current-layer="layer1"
     showgrid="false"
     inkscape:window-width="1280"
     inkscape:window-height="1004"
     inkscape:window-x="1598"
     inkscape:window-y="-3"
     inkscape:window-maximized="1" />
  <metadata
     id="metadata5497">
    <rdf:RDF>
      <cc:Work
         rdf:about="">
        <dc:format>image/svg+xml</dc:format>
        <dc:type
           rdf:resource="http://purl.org/dc/dcmitype/StillImage" />
        <dc:title></dc:title>
      </cc:Work>
    </rdf:RDF>
  </metadata>
  <g
     inkscape:label="Layer 1"
     inkscape:groupmode="layer"
     id="layer1"
     transform="translate(0,-972.36218)">
    <path
       inkscape:connector-curvature="0"
       id="path5242"
       style="fill:#b26531;fill-opacity:1;fill-rule:nonzero;stroke:none"
       d="m 54.884433,1004.7868 c -0.14065,0.8441 -0.20805,1.5205 -0.20566,2.1682 0.2107,0.2742 0.41795,0.5215 0.62069,0.737 3.32027,3.5274 5.60268,1.6598 5.60268,1.6598 0,0 -2.69745,-2.2824 -0.41503,-2.0748 2.28268,0.2075 2.90523,-2.0752 2.90523,-2.0752 0,0 -0.20752,-3.5278 1.2451,-3.9428 1.45261,-0.415 2.07516,-2.28242 2.07516,-2.28242 0,0 -3.73529,-2.28268 -1.86765,-3.52778 1.86765,-1.24482 3.52752,-5.60266 3.52752,-5.60266 l -3.32,0.83006 c 0,0 2.0749,-0.83006 3.32,-4.77262 1.2451,-3.94281 1.66013,-6.22523 1.66013,-6.22523 0,0 -7.67784,3.94254 -13.48804,4.35758 -3.79209,0.27095 -6.52244,3.63446 -7.96231,5.93917 5.31024,4.66859 6.58665,13.1046 6.30218,14.8117" />
    <path
       inkscape:connector-curvature="0"
       id="path5244"
       style="fill:#b26531;fill-opacity:1;fill-rule:nonzero;stroke:none"
       d="m 15.457843,990.6762 -3.3201,-0.83006 c 0,0 1.66011,4.35784 3.52762,5.60266 1.86762,1.2451 -1.86751,3.52778 -1.86751,3.52778 0,0 0.62246,1.86742 2.07502,2.28242 1.45259,0.415 1.24505,3.9428 1.24505,3.9428 0,0 0.62258,2.2827 2.90507,2.0752 2.28269,-0.2076 -0.41503,2.0748 -0.41503,2.0748 0,0 2.28268,1.8676 5.60295,-1.6598 0.0671,-0.072 0.13507,-0.1476 0.203,-0.2259 -0.65546,-2.666 -0.77434,-13.12547 6.15411,-18.04642 -1.51179,-2.25427 -4.10522,-5.13403 -7.60221,-5.38375 -5.81036,-0.41504 -13.48815,-4.35758 -13.48815,-4.35758 0,0 0.41504,2.28242 1.66008,6.22523 1.24504,3.94256 3.3201,4.77262 3.3201,4.77262" />
    <path
       inkscape:connector-curvature="0"
       id="path5246"
       style="fill:#76411c;fill-opacity:1;fill-rule:nonzero;stroke:none"
       d="m 34.133583,1008.9368 c 0,1.0315 -0.83616,1.8676 -1.86765,1.8676 -1.03121,0 -1.86738,-0.8361 -1.86738,-1.8676 0,-1.0312 0.83617,-1.8674 1.86738,-1.8674 1.03149,0 1.86765,0.8362 1.86765,1.8674 z m 13.48804,-1.8674 c 1.03148,0 1.86764,0.8362 1.86764,1.8674 0,1.0315 -0.83616,1.8676 -1.86764,1.8676 -1.03148,0 -1.86738,-0.8361 -1.86738,-1.8676 0,-1.0312 0.8359,-1.8674 1.86738,-1.8674 z m -22.20771,0.3967 0.004,0.018 c 0.50951,2.0369 -1.32444,11.4166 -2.24314,18.9374 1.93956,1.7795 4.21667,3.1915 6.60098,3.2657 3.16583,0.099 0,6.8479 -1.86765,7.6779 -0.73612,0.3272 -2.92274,-0.8292 -5.14996,-2.9978 0.0947,0.8388 0.2805,1.4486 0.58486,1.7529 1.68137,1.6815 6.10396,4.6854 8.80088,6.4607 -0.61565,-0.9607 -0.81945,-1.968 -0.29323,-2.9331 3.7353,-6.8477 15.77072,-2.6977 15.77072,0 0,0.9274 -0.66236,2.1985 -1.62457,3.4506 3.78306,-2.167 10.23438,-6.0607 10.96255,-7.8082 0.12206,-0.2929 0.20619,-0.8059 0.25926,-1.4844 -2.40872,2.5276 -4.90768,3.9139 -5.70511,3.5593 -1.86739,-0.83 -5.03347,-7.5788 -1.86739,-7.6779 2.73116,-0.085 5.32166,-1.9262 7.42549,-4.0637 -0.36276,-5.8511 -1.09623,-12.439 -1.56487,-14.1968 -0.54878,-2.0577 -0.82343,-3.2092 -0.82821,-4.472 -0.003,-0.6477 0.065,-1.3242 0.20566,-2.1683 0.28447,-1.7071 -0.99193,-10.14307 -6.30218,-14.81167 -2.4358,-2.14151 -5.71918,-3.49088 -10.09082,-3.03392 -2.85773,0.29852 -5.12687,1.20263 -6.92341,2.47851 -6.92844,4.92096 -6.80957,15.38038 -6.15411,18.04648" />
    <path
       inkscape:connector-curvature="0"
       id="path5248"
       style="fill:#60361a;fill-opacity:1;fill-rule:nonzero;stroke:none"
       d="m 36.208743,1039.2331 c 1.03148,0 1.86766,0.8363 1.86766,1.8677 0,1.0315 -0.83618,1.8674 -1.86766,1.8674 -1.03147,0 -1.86764,-0.8359 -1.86764,-1.8674 0,-1.0314 0.83617,-1.8677 1.86764,-1.8677 z m 6.01771,0 c 1.03149,0 1.86766,0.8363 1.86766,1.8677 0,1.0315 -0.83617,1.8674 -1.86766,1.8674 -1.03147,0 -1.86764,-0.8359 -1.86764,-1.8674 0,-1.0314 0.83617,-1.8677 1.86764,-1.8677 z m -10.37555,0.415 c -0.52623,0.9652 -0.32242,1.9725 0.29323,2.9332 1.59219,2.484 5.94607,4.6529 7.59213,4.9522 1.49772,0.2723 4.42499,-2.0462 6.26079,-4.4347 0.96221,-1.2521 1.62457,-2.5232 1.62457,-3.4507 0,-2.6977 -12.03542,-6.8477 -15.77072,0" />
    <path
       inkscape:connector-curvature="0"
       id="path5250"
       style="fill:#241105;fill-opacity:1;fill-rule:nonzero;stroke:none"
       d="m 36.208743,1042.9682 c 1.03148,0 1.86766,-0.8359 1.86766,-1.8674 0,-1.0314 -0.83618,-1.8677 -1.86766,-1.8677 -1.03147,0 -1.86764,0.8363 -1.86764,1.8677 0,1.0315 0.83617,1.8674 1.86764,1.8674" />
    <path
       inkscape:connector-curvature="0"
       id="path5252"
       style="fill:#241105;fill-opacity:1;fill-rule:nonzero;stroke:none"
       d="m 42.226453,1042.9682 c 1.03149,0 1.86766,-0.8359 1.86766,-1.8674 0,-1.0314 -0.83617,-1.8677 -1.86766,-1.8677 -1.03147,0 -1.86764,0.8363 -1.86764,1.8677 0,1.0315 0.83617,1.8674 1.86764,1.8674" />
    <path
       inkscape:connector-curvature="0"
       id="path5254"
       style="fill:#241105;fill-opacity:1;fill-rule:nonzero;stroke:none"
       d="m 30.398553,1008.9368 c 0,1.0315 0.83617,1.8676 1.86738,1.8676 1.03149,0 1.86765,-0.8361 1.86765,-1.8676 0,-1.0312 -0.83616,-1.8674 -1.86765,-1.8674 -1.03121,0 -1.86738,0.8362 -1.86738,1.8674" />
    <path
       inkscape:connector-curvature="0"
       id="path5256"
       style="fill:#241105;fill-opacity:1;fill-rule:nonzero;stroke:none"
       d="m 47.621623,1010.8044 c 1.03148,0 1.86764,-0.8361 1.86764,-1.8676 0,-1.0312 -0.83616,-1.8674 -1.86764,-1.8674 -1.03148,0 -1.86738,0.8362 -1.86738,1.8674 0,1.0315 0.8359,1.8676 1.86738,1.8676" />
    <path
       inkscape:connector-curvature="0"
       id="path5266"
       style="fill:#fcce5d;fill-opacity:1;fill-rule:nonzero;stroke:none"
       d="m 27.908353,1037.3655 c 1.86765,-0.8301 5.03347,-7.5789 1.86765,-7.6779 -2.38431,-0.074 -4.66142,-1.4863 -6.60098,-3.2658 -3.4625,-3.1767 -5.84956,-7.5245 -5.84956,-7.5245 -1.50866,6.4118 2.00984,12.1371 5.43292,15.4704 2.22723,2.1686 4.41385,3.325 5.14998,2.9978" />
    <path
       inkscape:connector-curvature="0"
       id="path5268"
       style="fill:#fcce5d;fill-opacity:1;fill-rule:nonzero;stroke:none"
       d="m 49.646363,1029.6876 c -3.16608,0.099 0,6.8478 1.86738,7.6779 0.79744,0.3545 3.29638,-1.0318 5.70512,-3.5593 3.23375,-3.3934 6.3051,-8.8439 4.87796,-14.9089 0,0 -2.01386,3.6671 -5.02498,6.7266 -2.10382,2.1374 -4.69432,3.9785 -7.42548,4.0637" />
  </g>
</svg>
