<?xml version="1.0" encoding="UTF-8" standalone="no"?>
<!-- Created with Inkscape (http://www.inkscape.org/) -->

<svg
   xmlns:dc="http://purl.org/dc/elements/1.1/"
   xmlns:cc="http://creativecommons.org/ns#"
   xmlns:rdf="http://www.w3.org/1999/02/22-rdf-syntax-ns#"
   xmlns:svg="http://www.w3.org/2000/svg"
   xmlns="http://www.w3.org/2000/svg"
   xmlns:sodipodi="http://sodipodi.sourceforge.net/DTD/sodipodi-0.dtd"
   xmlns:inkscape="http://www.inkscape.org/namespaces/inkscape"
   width="80"
   height="80"
   id="svg6063"
   version="1.1"
   inkscape:version="0.48.4 r9939"
   sodipodi:docname="deer.svg">
  <defs
     id="defs6065" />
  <sodipodi:namedview
     id="base"
     pagecolor="#ffffff"
     bordercolor="#666666"
     borderopacity="1.0"
     inkscape:pageopacity="0.0"
     inkscape:pageshadow="2"
     inkscape:zoom="10.35"
     inkscape:cx="40"
     inkscape:cy="40"
     inkscape:document-units="px"
     inkscape:current-layer="layer1"
     showgrid="false"
     inkscape:window-width="1280"
     inkscape:window-height="1004"
     inkscape:window-x="1598"
     inkscape:window-y="-3"
     inkscape:window-maximized="1" />
  <metadata
     id="metadata6068">
    <rdf:RDF>
      <cc:Work
         rdf:about="">
        <dc:format>image/svg+xml</dc:format>
        <dc:type
           rdf:resource="http://purl.org/dc/dcmitype/StillImage" />
      </cc:Work>
    </rdf:RDF>
  </metadata>
  <g
     inkscape:label="Layer 1"
     inkscape:groupmode="layer"
     id="layer1"
     transform="translate(0,-972.36218)">
    <g
       id="g6384"
       transform="translate(-0.28985507,0)">
      <path
         d="m 75.410675,996.97168 c -0.804794,5.99102 -4.202697,7.60062 -3.844897,6.70642 3.163773,-7.90984 0.178729,-15.46945 -0.268264,-8.85254 -0.447165,6.61704 -2.235481,7.33234 -1.788488,4.73923 1.577341,-9.1481 -2.145945,-16.54237 -2.593109,-15.11168 -0.446994,1.43069 1.698951,12.51857 -1.430687,20.83439 -3.129639,8.3159 -7.95823,9.9255 -7.95823,9.9255 3.845068,-2.1461 4.739227,-6.1699 5.007491,-7.8689 0.268265,-1.6989 -1.162423,-3.7555 -1.877852,-0.8048 -1.392437,5.7442 -7.4217,9.2996 -10.551339,9.9255 -0.577866,0.1156 -1.088152,0.3322 -1.536861,0.6079 -0.44442,1.4052 -0.948531,2.7426 -1.28815,3.6051 0.282158,0.2986 0.549565,0.6147 0.78747,0.9418 0.397423,-0.8371 1.419195,-2.4485 3.2895,-2.1146 2.503574,0.4472 4.82859,-1.52 5.633384,-1.6989 0.205829,-0.046 0.352655,0.1907 0.414403,0.614 1.015941,-0.407 2.076135,-0.8234 3.162229,-1.2399 6.527542,-2.5037 14.127971,-10.2831 16.184723,-16.6317 2.05658,-6.34884 -0.536529,-9.56784 -1.341323,-3.57682"
         style="fill:#998c68;fill-opacity:1;fill-rule:nonzero;stroke:none"
         id="path5178"
         inkscape:connector-curvature="0" />
      <path
         d="m 47.280289,1020.6778 c 0.339619,-0.8625 0.84373,-2.1999 1.28815,-3.6051 0.344593,-1.0898 0.653338,-2.2199 0.821604,-3.201 0.536529,-3.1297 -0.625894,-6.3487 -1.520223,-2.3249 -0.608227,2.7374 -2.043545,5.6387 -2.899453,7.2152 0.66037,0.4141 1.537547,1.0984 2.309922,1.9158"
         style="fill:#241105;fill-opacity:1;fill-rule:nonzero;stroke:none"
         id="path5180"
         inkscape:connector-curvature="0" />
      <path
         d="m 23.443166,1017.8061 c 0.804793,0.1789 3.129638,2.1461 5.633384,1.6989 2.503745,-0.4471 3.487267,2.5931 3.487267,2.5931 l -0.01647,0.1422 c 0.356428,-0.3413 0.668775,-0.7219 0.951276,-1.1111 -0.318007,-0.7887 -0.935324,-2.3729 -1.467908,-4.0565 -0.44888,-0.2757 -0.959166,-0.4923 -1.537033,-0.6079 -3.129467,-0.6259 -9.15873,-4.1813 -10.551167,-9.9255 -0.715429,-2.9507 -2.146116,-0.8941 -1.877852,0.8048 0.268265,1.699 1.162423,5.7228 5.007319,7.8689 0,0 -4.828419,-1.6096 -7.958057,-9.9255 -3.129639,-8.31582 -0.983694,-19.4037 -1.430687,-20.83439 -0.447165,-1.43069 -4.1704508,5.96358 -2.593282,15.11168 0.447165,2.59311 -1.3411508,1.87781 -1.7883156,-4.73923 -0.4469932,-6.61691 -3.4322082,0.9427 -0.2682646,8.85254 0.3578005,0.8942 -3.0401028,-0.7154 -3.8448965,-6.70642 -0.8047937,-5.99102 -3.3979033,-2.77202 -1.3413228,3.57682 2.0565806,6.3486 9.6571805,14.128 16.1847225,16.6317 1.030521,0.3952 2.038571,0.7906 3.006828,1.1777 0.06689,-0.3839 0.208917,-0.5952 0.404455,-0.5518"
         style="fill:#998c68;fill-opacity:1;fill-rule:nonzero;stroke:none"
         id="path5182"
         inkscape:connector-curvature="0" />
      <path
         d="m 35.443545,1018.4165 c -0.865171,-1.6315 -2.148003,-4.3215 -2.714378,-6.8697 -0.894158,-4.0238 -2.05658,-0.8048 -1.520051,2.3249 0.168094,0.9811 0.47701,2.1112 0.821603,3.201 0.532584,1.6836 1.149901,3.2678 1.467908,4.0565 0.764657,-1.054 1.313879,-2.1672 1.944918,-2.7127"
         style="fill:#241105;fill-opacity:1;fill-rule:nonzero;stroke:none"
         id="path5184"
         inkscape:connector-curvature="0" />
      <path
         d="m 56.990643,1017.8061 c -0.804794,0.1789 -3.12981,2.1461 -5.633384,1.6989 -1.870305,-0.3339 -2.892077,1.2775 -3.2895,2.1146 0.166722,0.2293 0.319207,0.4638 0.450938,0.7015 0.54785,-0.5205 1.412849,-1.0909 2.480933,-0.9382 1.87768,0.2683 3.040103,-0.7154 3.844896,-0.9837 0.775978,-0.2587 0.470149,4.636 -5.884839,4.506 -0.05575,0.3713 -0.13053,0.7627 -0.219894,1.1639 1.129318,0.2957 4.276624,0.846 6.372998,-1.4672 1.929652,-2.1293 2.472356,-4.9505 2.292255,-6.1818 -0.06175,-0.4233 -0.208574,-0.6598 -0.414403,-0.614"
         style="fill:#5a4a48;fill-opacity:1;fill-rule:nonzero;stroke:none"
         id="path5186"
         inkscape:connector-curvature="0" />
      <path
         d="m 49.032414,1024.3336 c -0.01853,0.1837 -0.04322,0.375 -0.07273,0.5716 6.354988,0.13 6.660817,-4.7647 5.884839,-4.506 -0.804793,0.2683 -1.967216,1.252 -3.844896,0.9837 -1.068084,-0.1527 -1.933083,0.4177 -2.480933,0.9382 0.368264,0.6642 0.579754,1.3518 0.513717,2.0125"
         style="fill:#413532;fill-opacity:1;fill-rule:nonzero;stroke:none"
         id="path5188"
         inkscape:connector-curvature="0" />
      <path
         d="m 31.429353,1024.9058 c -6.311592,0.1062 -6.614162,-4.7646 -5.840071,-4.5066 0.804794,0.2683 1.967216,1.252 3.844897,0.9837 1.256761,-0.1796 2.232393,0.6417 2.740792,1.2048 0.04374,-0.046 0.08816,-0.091 0.136191,-0.1319 0.08113,-0.069 0.159346,-0.1419 0.236189,-0.2155 l 0.01647,-0.1422 c 0,0 -0.983522,-3.0402 -3.487267,-2.5931 -2.503746,0.4472 -4.828591,-1.52 -5.633384,-1.6989 -0.195538,-0.043 -0.337561,0.1679 -0.404455,0.5518 -0.208403,1.1957 0.319207,4.0778 2.282307,6.244 1.989686,2.1955 4.924815,1.8115 6.184149,1.5139 -0.05575,-0.4172 -0.08233,-0.8237 -0.07581,-1.21"
         style="fill:#5a4a48;fill-opacity:1;fill-rule:nonzero;stroke:none"
         id="path5190"
         inkscape:connector-curvature="0" />
      <path
         d="m 29.434179,1021.3829 c -1.877681,0.2683 -3.040103,-0.7154 -3.844897,-0.9837 -0.774091,-0.258 -0.471521,4.6128 5.840071,4.5066 0.01561,-0.9591 0.238591,-1.7879 0.745618,-2.3181 -0.508399,-0.5631 -1.484031,-1.3844 -2.740792,-1.2048"
         style="fill:#413532;fill-opacity:1;fill-rule:nonzero;stroke:none"
         id="path5192"
         inkscape:connector-curvature="0" />
      <path
         d="m 49.032414,1024.3336 c 0.06604,-0.6607 -0.145453,-1.3483 -0.513717,-2.0125 -0.131731,-0.2377 -0.284216,-0.4722 -0.450938,-0.7015 -0.237905,-0.3271 -0.505312,-0.6432 -0.78747,-0.9418 -0.772375,-0.8174 -1.649552,-1.5017 -2.309922,-1.9158 -0.375296,-0.2353 -0.681124,-0.3844 -0.85608,-0.4194 -0.894158,-0.1789 -0.804622,0.6259 -1.609415,0.8942 -0.804794,0.2682 -4.381598,0.089 -5.007491,0 -0.625894,-0.089 -0.715258,-1.1624 -1.251787,-1.1624 -0.292278,0 -0.55351,0.1272 -0.802049,0.3421 -0.631039,0.5455 -1.180261,1.6587 -1.944918,2.7127 -0.282501,0.3892 -0.594848,0.7698 -0.951276,1.1111 -0.07684,0.074 -0.155058,0.146 -0.236189,0.2155 -0.04803,0.041 -0.09245,0.086 -0.136191,0.1319 -0.507027,0.5302 -0.730009,1.359 -0.745618,2.3181 -0.0065,0.3863 0.02007,0.7928 0.07581,1.21 0.09022,0.6746 0.255572,1.3746 0.474094,2.0542 -0.01166,-0.1133 -0.02058,-0.2295 -0.02573,-0.3491 -0.08954,-2.0566 1.627426,-5.2276 3.129638,-4.6497 1.162423,0.4472 -1.251958,2.146 -0.268264,2.8614 0.983522,0.7152 0.804794,2.8614 -0.447165,3.9344 -0.597077,0.5117 -1.15316,0.5141 -1.581629,0.1544 0.268951,0.5187 0.562258,0.9854 0.866371,1.3657 1.555729,1.9447 0.946988,2.8071 2.174933,4.4112 -0.07513,-0.2298 -0.118352,-0.4511 -0.118352,-0.6557 0,-1.4307 2.05658,-4.6497 4.560326,-4.6497 2.585905,0 4.265303,2.6516 4.709724,4.1595 0.386445,-0.9338 0.902905,-2.0355 1.370653,-2.5501 0.301369,-0.3314 0.67392,-1.0293 1.045443,-1.9108 -0.381299,0.1683 -0.833267,0.086 -1.311821,-0.3245 -1.251787,-1.073 -1.430687,-3.2192 -0.446993,-3.9344 0.983522,-0.7154 -1.430687,-2.4142 -0.268264,-2.8614 1.34784,-0.5185 2.867549,1.9808 3.101165,3.9855 0.100171,-0.3655 0.190907,-0.7303 0.270495,-1.0876 0.08936,-0.4012 0.164149,-0.7926 0.219894,-1.1639 0.0295,-0.1966 0.0542,-0.3879 0.07273,-0.5716"
         style="fill:#74615e;fill-opacity:1;fill-rule:nonzero;stroke:none"
         id="path5194"
         inkscape:connector-curvature="0" />
      <path
         d="m 43.069359,1035.2647 c -0.667745,0.6678 -4.228597,0.7789 -4.896342,0 -0.667574,-0.7789 -0.667574,-2.8931 2.55949,-2.8931 2.55932,0 3.004426,2.2255 2.336852,2.8931 z m -2.799968,-4.6718 c -2.503746,0 -4.560326,3.219 -4.560326,4.6497 0,0.2046 0.04322,0.4259 0.118352,0.6557 0.450767,1.3781 2.091743,3.0745 3.011287,3.4576 1.073058,0.447 1.967216,-0.2682 2.950738,0.2681 0.983694,0.5366 3.308539,-3.0401 3.308539,-4.2025 0,-0.1738 -0.04082,-0.4041 -0.118866,-0.6691 -0.444421,-1.5079 -2.123819,-4.1595 -4.709724,-4.1595"
         style="fill:#cab5a3;fill-opacity:1;fill-rule:nonzero;stroke:none"
         id="path5196"
         inkscape:connector-curvature="0" />
      <path
         d="m 32.668791,1027.3024 c 0,-0.5532 0.448365,-1.0016 1.001532,-1.0016 0.553167,0 1.001532,0.4484 1.001532,1.0016 0,0.553 -0.448365,1.0013 -1.001532,1.0013 -0.553167,0 -1.001532,-0.4483 -1.001532,-1.0013 z m 1.698951,2.6646 c 1.251959,-1.073 1.430687,-3.2192 0.447165,-3.9344 -0.983694,-0.7154 1.430687,-2.4142 0.268264,-2.8614 -1.502212,-0.5779 -3.219174,2.5931 -3.129638,4.6497 0.0051,0.1196 0.01406,0.2358 0.02573,0.3491 0.09348,0.9056 0.389361,1.6006 0.806852,1.9514 0.428469,0.3597 0.984552,0.3573 1.581629,-0.1544"
         style="fill:#cab5a3;fill-opacity:1;fill-rule:nonzero;stroke:none"
         id="path5198"
         inkscape:connector-curvature="0" />
      <path
         d="m 46.989898,1028.3037 c -0.553167,0 -1.001532,-0.4483 -1.001532,-1.0013 0,-0.5532 0.448365,-1.0016 1.001532,-1.0016 0.552996,0 1.001533,0.4484 1.001533,1.0016 0,0.553 -0.448537,1.0013 -1.001533,1.0013 z m -1.621765,-5.1325 c -1.162423,0.4472 1.251786,2.146 0.268264,2.8614 -0.983694,0.7152 -0.804794,2.8614 0.446993,3.9344 0.478554,0.4101 0.930522,0.4928 1.311821,0.3245 0.616288,-0.2717 1.047329,-1.2001 1.10256,-2.4706 0.0091,-0.2113 -0.0017,-0.4347 -0.02847,-0.6642 -0.233616,-2.0047 -1.753325,-4.504 -3.101165,-3.9855"
         style="fill:#cab5a3;fill-opacity:1;fill-rule:nonzero;stroke:none"
         id="path5200"
         inkscape:connector-curvature="0" />
      <path
         d="m 34.671855,1027.3024 c 0,-0.5532 -0.448365,-1.0016 -1.001532,-1.0016 -0.553167,0 -1.001532,0.4484 -1.001532,1.0016 0,0.553 0.448365,1.0013 1.001532,1.0013 0.553167,0 1.001532,-0.4483 1.001532,-1.0013"
         style="fill:#241105;fill-opacity:1;fill-rule:nonzero;stroke:none"
         id="path5284"
         inkscape:connector-curvature="0" />
      <path
         d="m 46.989898,1026.3008 c -0.553167,0 -1.001532,0.4484 -1.001532,1.0016 0,0.553 0.448365,1.0013 1.001532,1.0013 0.552996,0 1.001533,-0.4483 1.001533,-1.0013 0,-0.5532 -0.448537,-1.0016 -1.001533,-1.0016"
         style="fill:#241105;fill-opacity:1;fill-rule:nonzero;stroke:none"
         id="path5286"
         inkscape:connector-curvature="0" />
      <path
         d="m 40.732507,1032.3716 c -3.227064,0 -3.227064,2.1142 -2.55949,2.8931 0.667745,0.7789 4.228597,0.6678 4.896342,0 0.667574,-0.6676 0.222468,-2.8931 -2.336852,-2.8931"
         style="fill:#241105;fill-opacity:1;fill-rule:nonzero;stroke:none"
         id="path5288"
         inkscape:connector-curvature="0" />
    </g>
  </g>
</svg>
