<?xml version="1.0" encoding="UTF-8" standalone="no"?>
<!-- Created with Inkscape (http://www.inkscape.org/) -->

<svg
   xmlns:dc="http://purl.org/dc/elements/1.1/"
   xmlns:cc="http://creativecommons.org/ns#"
   xmlns:rdf="http://www.w3.org/1999/02/22-rdf-syntax-ns#"
   xmlns:svg="http://www.w3.org/2000/svg"
   xmlns="http://www.w3.org/2000/svg"
   xmlns:sodipodi="http://sodipodi.sourceforge.net/DTD/sodipodi-0.dtd"
   xmlns:inkscape="http://www.inkscape.org/namespaces/inkscape"
   width="80"
   height="80"
   id="svg5961"
   version="1.1"
   inkscape:version="0.48.4 r9939"
   sodipodi:docname="fox.svg">
  <defs
     id="defs5963" />
  <sodipodi:namedview
     id="base"
     pagecolor="#ffffff"
     bordercolor="#666666"
     borderopacity="1.0"
     inkscape:pageopacity="0.0"
     inkscape:pageshadow="2"
     inkscape:zoom="10.35"
     inkscape:cx="40"
     inkscape:cy="40"
     inkscape:document-units="px"
     inkscape:current-layer="layer1"
     showgrid="false"
     inkscape:window-width="1600"
     inkscape:window-height="818"
     inkscape:window-x="-2"
     inkscape:window-y="32"
     inkscape:window-maximized="1" />
  <metadata
     id="metadata5966">
    <rdf:RDF>
      <cc:Work
         rdf:about="">
        <dc:format>image/svg+xml</dc:format>
        <dc:type
           rdf:resource="http://purl.org/dc/dcmitype/StillImage" />
        <dc:title></dc:title>
      </cc:Work>
    </rdf:RDF>
  </metadata>
  <g
     inkscape:label="Layer 1"
     inkscape:groupmode="layer"
     id="layer1"
     transform="translate(0,-972.36218)">
    <path
       inkscape:connector-curvature="0"
       id="path5226"
       style="fill:#934819;fill-opacity:1;fill-rule:nonzero;stroke:none"
       d="m 67.211904,1025.9754 c -2.076707,-4.3845 -14.538426,-5.5384 -16.615133,-0.4615 -2.077003,5.0771 0.461556,17.3077 -9.461605,16.6154 -9.92316,-0.6924 -11.077049,-7.3846 -10.153938,-13.8461 0.923112,-6.4615 -12.692201,-8.0769 -16.153781,-2.3078 -1.368468,2.2806 -3.566259,3.1884 -5.7239165,3.4552 4.1826305,1.9176 12.4742315,5.9778 17.4932115,10.1601 6.923044,5.7695 10.615198,8.077 14.076868,9.0001 3.461376,0.9231 8.076936,-6.4615 15.23076,-9.6924 5.680622,-2.5654 12.66653,-7.4563 15.651298,-9.9409 -1.818484,-0.4276 -3.543417,-1.2929 -4.343762,-2.9821" />
    <path
       inkscape:connector-curvature="0"
       id="path5228"
       style="fill:#ac551e;fill-opacity:1;fill-rule:nonzero;stroke:none"
       d="m 65.365975,981.66781 c 1.845929,0.23078 0.692334,11.99986 0.461556,16.15387 -0.0965,1.73498 -0.194479,2.66282 -0.660462,3.12382 0.501989,0.6769 0.968854,1.3589 1.403262,2.0404 1.247144,-1.1401 1.795463,-2.6446 1.795463,-6.77967 0,-5.99992 2.538558,-20.53835 -1.615446,-20.53835 -3.402646,0 -12.063022,9.47135 -14.962208,14.77865 2.179406,0.88062 4.147219,1.97135 5.917895,3.20462 1.65145,-4.23546 5.984883,-12.19287 7.659942,-11.98334" />
    <path
       inkscape:connector-curvature="0"
       id="path5230"
       style="fill:#753813;fill-opacity:1;fill-rule:nonzero;stroke:none"
       d="m 65.827531,997.82168 c 0.230778,-4.15401 1.384373,-15.92309 -0.461556,-16.15387 -1.675059,-0.20953 -6.008492,7.74788 -7.659942,11.98334 3.050283,2.12452 5.515063,4.67104 7.461036,7.29435 0.465983,-0.461 0.56396,-1.38884 0.660462,-3.12382" />
    <path
       inkscape:connector-curvature="0"
       id="path5232"
       style="fill:#ac551e;fill-opacity:1;fill-rule:nonzero;stroke:none"
       d="m 13.746123,997.82168 c -0.230778,-4.15401 -1.384609,-15.92309 0.461587,-16.15387 1.51741,-0.18976 5.216025,6.32279 7.126289,10.69901 0.138408,-0.10861 0.276816,-0.21544 0.416404,-0.31429 1.768019,-1.25245 3.536334,-2.12866 5.371936,-2.7351 -3.382877,-5.41562 -11.126542,-13.64955 -14.299238,-13.64955 -4.1538275,0 -1.615418,14.53843 -1.615418,20.53835 0,4.97707 0.795092,6.14337 2.646216,7.44977 0.339379,-0.818 0.699742,-1.6254 1.079375,-2.4137 -0.934917,-0.2741 -1.061964,-1.168 -1.187151,-3.42062" />
    <path
       inkscape:connector-curvature="0"
       id="path5234"
       style="fill:#753813;fill-opacity:1;fill-rule:nonzero;stroke:none"
       d="m 14.20771,981.66781 c -1.846196,0.23078 -0.692365,11.99986 -0.461587,16.15387 0.125187,2.25262 0.252234,3.14652 1.187151,3.42062 1.789591,-3.71661 3.999689,-6.99531 6.400725,-8.87548 -1.910264,-4.37622 -5.608879,-10.88877 -7.126289,-10.69901" />
    <path
       inkscape:connector-curvature="0"
       id="path5236"
       style="fill:#c16022;fill-opacity:1;fill-rule:nonzero;stroke:none"
       d="m 50.827549,1019.0524 c -1.147103,0 -2.077003,-0.9299 -2.077003,-2.077 0,-1.1468 0.9299,-2.0767 2.077003,-2.0767 1.146807,0 2.076709,0.9299 2.076709,2.0767 0,1.1471 -0.929902,2.077 -2.076709,2.077 z m -6.576584,19.8171 c -1.105787,1.1058 -7.003316,1.2899 -8.109103,0 -1.105787,-1.2903 -1.105787,-4.7921 4.238997,-4.7921 4.238997,0 4.976188,3.6863 3.870106,4.7921 z m -14.192848,-19.8171 c -1.147103,0 -2.076707,-0.9299 -2.076707,-2.077 0,-1.1468 0.929604,-2.0767 2.076707,-2.0767 1.147102,0 2.077001,0.9299 2.077001,2.0767 0,1.1471 -0.929899,2.077 -2.077001,2.077 z m 36.512214,-16.0665 c -0.434408,-0.6815 -0.901273,-1.3635 -1.403262,-2.0404 -1.945973,-2.62331 -4.410753,-5.16983 -7.461036,-7.29435 -1.770676,-1.23327 -3.738487,-2.324 -5.917893,-3.20462 -3.286669,-1.32772 -7.05201,-2.17883 -11.345308,-2.31722 -5.184242,-0.16734 -9.405828,-0.10537 -13.320493,1.18812 -1.835602,0.60644 -3.603917,1.48265 -5.371936,2.7351 -0.139588,0.0988 -0.277996,0.20568 -0.416404,0.31429 -2.401036,1.88017 -4.611134,5.15887 -6.400725,8.87548 -0.379633,0.7883 -0.739996,1.5957 -1.079375,2.4137 -1.627605,3.9239 -2.769778,8.0864 -3.18028,11.4731 -0.9231427,7.6157 -8.076995,13.6156 -8.076995,13.6156 0,0 3.2064855,1.094 6.5069065,0.6859 2.1576575,-0.2668 4.3554485,-1.1746 5.7239165,-3.4552 3.46158,-5.7691 17.076896,-4.1537 16.153781,2.3078 -0.923111,6.4615 0.230781,13.1537 10.153938,13.8461 9.923161,0.6923 7.384602,-11.5383 9.461607,-16.6154 2.076705,-5.0769 14.538424,-3.923 16.615133,0.4615 0.800345,1.6892 2.525278,2.5545 4.343762,2.9821 2.901547,0.6829 6.040956,0.2488 6.040956,0.2488 0,0 -5.538379,-7.6154 -6.461491,-14.7692 -0.350594,-2.7171 -1.767725,-7.065 -4.564802,-11.4512" />
    <path
       inkscape:connector-curvature="0"
       id="path5258"
       style="fill:#241105;fill-opacity:1;fill-rule:nonzero;stroke:none"
       d="m 30.058119,1014.8987 c -1.147102,0 -2.076707,0.9299 -2.076707,2.0767 0,1.1471 0.929605,2.077 2.076707,2.077 1.147102,0 2.077002,-0.9299 2.077002,-2.077 0,-1.1468 -0.9299,-2.0767 -2.077002,-2.0767" />
    <path
       inkscape:connector-curvature="0"
       id="path5260"
       style="fill:#241105;fill-opacity:1;fill-rule:nonzero;stroke:none"
       d="m 50.827549,1014.8987 c -1.147103,0 -2.077003,0.9299 -2.077003,2.0767 0,1.1471 0.9299,2.077 2.077003,2.077 1.146807,0 2.076709,-0.9299 2.076709,-2.077 0,-1.1468 -0.929902,-2.0767 -2.076709,-2.0767" />
    <path
       inkscape:connector-curvature="0"
       id="path5290"
       style="fill:#241105;fill-opacity:1;fill-rule:nonzero;stroke:none"
       d="m 40.380859,1034.0774 c -5.344784,0 -5.344784,3.5018 -4.238997,4.7921 1.105787,1.2899 7.003316,1.1058 8.109103,0 1.106082,-1.1058 0.368891,-4.7921 -3.870106,-4.7921" />
  </g>
</svg>
