<?xml version="1.0" encoding="UTF-8" standalone="no"?>
<!-- Created with Inkscape (http://www.inkscape.org/) -->

<svg
   xmlns:dc="http://purl.org/dc/elements/1.1/"
   xmlns:cc="http://creativecommons.org/ns#"
   xmlns:rdf="http://www.w3.org/1999/02/22-rdf-syntax-ns#"
   xmlns:svg="http://www.w3.org/2000/svg"
   xmlns="http://www.w3.org/2000/svg"
   xmlns:sodipodi="http://sodipodi.sourceforge.net/DTD/sodipodi-0.dtd"
   xmlns:inkscape="http://www.inkscape.org/namespaces/inkscape"
   width="80"
   height="80"
   id="svg6186"
   version="1.1"
   inkscape:version="0.48.4 r9939"
   sodipodi:docname="okapi.svg">
  <defs
     id="defs6188" />
  <sodipodi:namedview
     id="base"
     pagecolor="#ffffff"
     bordercolor="#666666"
     borderopacity="1.0"
     inkscape:pageopacity="0.0"
     inkscape:pageshadow="2"
     inkscape:zoom="10.35"
     inkscape:cx="40"
     inkscape:cy="40"
     inkscape:document-units="px"
     inkscape:current-layer="layer1"
     showgrid="false"
     inkscape:window-width="1280"
     inkscape:window-height="1004"
     inkscape:window-x="1598"
     inkscape:window-y="-3"
     inkscape:window-maximized="1" />
  <metadata
     id="metadata6191">
    <rdf:RDF>
      <cc:Work
         rdf:about="">
        <dc:format>image/svg+xml</dc:format>
        <dc:type
           rdf:resource="http://purl.org/dc/dcmitype/StillImage" />
        <dc:title></dc:title>
      </cc:Work>
    </rdf:RDF>
  </metadata>
  <g
     inkscape:label="Layer 1"
     inkscape:groupmode="layer"
     id="layer1"
     transform="translate(0,-972.36218)">
    <g
       id="g6415"
       transform="translate(0.38647343,0)">
      <path
         d="m 25.109303,1004.5801 c -2.092616,0.1247 -14.281363,-2.6983 -17.2389371,-7.25094 -2.9573376,-4.55266 -3.4534543,-9.96885 -2.8383262,-10.46142 0.6151281,-0.49305 6.2783213,0.48785 11.3275663,3.56207 5.049245,3.07399 7.637035,7.01128 8.746391,9.22646 1.109356,2.21493 4.01805,0.39223 3.940598,1.96673 -0.121609,2.4622 -1.844676,2.8327 -3.937292,2.9571 z m 4.383821,1.6624 c 0.814189,-2.5228 1.896861,-4.8228 3.336096,-6.51917 -2.544576,-0.88692 -6.532401,-2.7682 -8.833759,-6.33949 -3.56987,-5.53945 -17.480266,-9.10956 -20.0654569,-8.74024 -2.5849548,0.36931 -0.1230257,15.5107 7.8785979,19.0805 8.001388,3.5699 11.448233,1.108 13.04851,2.7083 0.873695,0.8737 2.186834,1.9667 3.200083,2.7799 0.421499,-1.3898 0.918088,-2.5197 1.435929,-2.9698"
         style="fill:#65423b;fill-opacity:1;fill-rule:nonzero;stroke:none"
         id="path5212"
         inkscape:connector-curvature="0" />
      <path
         d="m 25.105997,999.65627 c -1.109356,-2.21518 -3.697146,-6.15247 -8.746391,-9.22646 -5.049245,-3.07422 -10.7124382,-4.05512 -11.3275663,-3.56207 -0.6151281,0.49257 -0.1190114,5.90876 2.8383262,10.46142 2.9575741,4.55264 15.1463211,7.37564 17.2389371,7.25094 2.092616,-0.1244 3.815683,-0.4949 3.937292,-2.9571 0.07745,-1.5745 -2.831242,0.2482 -3.940598,-1.96673"
         style="fill:#4f332d;fill-opacity:1;fill-rule:nonzero;stroke:none"
         id="path5214"
         inkscape:connector-curvature="0" />
      <path
         d="m 70.896084,997.32916 c -2.958754,4.55264 -15.147263,7.37564 -17.239879,7.25094 -2.092616,-0.1244 -3.815919,-0.4949 -3.937292,-2.9571 -0.07769,-1.5745 2.831242,0.2482 3.940597,-1.96673 1.109356,-2.21518 3.697145,-6.15247 8.745209,-9.22646 5.050899,-3.07422 10.713383,-4.05512 11.329692,-3.56207 0.613947,0.49257 0.118066,5.90876 -2.838327,10.46142 z m 3.938709,-12.68556 c -2.585663,-0.36932 -16.494642,3.20079 -20.064746,8.74024 -2.2487,3.48936 -6.107832,5.3659 -8.657366,6.27762 2.073961,2.00804 3.253921,4.92004 3.823475,8.21694 0.184184,0.4572 0.359396,0.9767 0.522564,1.5335 1.037807,-0.8265 2.502543,-2.0324 3.449675,-2.9795 1.600278,-1.6003 5.04712,0.8616 13.048981,-2.7083 8.000207,-3.5698 10.463081,-18.71119 7.877417,-19.0805"
         style="fill:#65423b;fill-opacity:1;fill-rule:nonzero;stroke:none"
         id="path5216"
         inkscape:connector-curvature="0" />
      <path
         d="m 45.783746,1034.3759 c -0.723749,-0.1112 -1.322112,-0.5499 -2.135828,-0.9972 0.421971,0.9859 0.302723,2.0303 -0.203075,2.5359 -1.107703,1.1079 -7.016475,1.2926 -8.124414,0 -0.423623,-0.494 -0.683606,-1.3117 -0.546413,-2.1335 -0.964606,0.6588 -1.54762,1.1469 -2.038778,0.4718 0,0 0.984914,4.6778 6.278085,5.6625 4.052525,0.754 6.299337,-3.0364 7.130999,-5.8497 -0.146166,0.2155 -0.268956,0.3244 -0.360576,0.3102"
         style="fill:#f1dcca;fill-opacity:1;fill-rule:nonzero;stroke:none"
         id="path5218"
         inkscape:connector-curvature="0" />
      <path
         d="m 41.840787,1030.3137 c -0.738626,-1.1079 -1.230964,-8.2477 -0.492575,-11.2022 0.507688,-2.0302 4.308731,9.848 4.308731,12.3099 0,2.4622 -3.07753,0 -3.816156,-1.1077 z m -8.736236,1.1077 c 0,-2.4619 3.801043,-14.3401 4.308495,-12.3099 0.738626,2.9545 0.246287,10.0943 -0.492339,11.2022 -0.738626,1.1077 -3.816156,3.5699 -3.816156,1.1077 z m 12.49265,-17.1107 c -1.846565,-3.6931 -0.6156,-7.0167 2.708216,-8.2477 0.563888,-0.2089 1.129664,0.5712 1.630739,1.8154 -0.569554,-3.2969 -1.749514,-6.2089 -3.823475,-8.21694 -1.707483,-1.65341 -4.020412,-2.69453 -7.099358,-2.83101 -2.575982,-0.11405 -4.596813,1.02246 -6.184103,2.89288 -1.439235,1.69637 -2.521907,3.99637 -3.336096,6.51917 0.21677,-0.1884 0.437083,-0.2609 0.65716,-0.1795 3.32358,1.231 4.554545,4.5546 2.70798,8.2477 -1.456472,2.9132 -4.367055,4.5985 -5.531902,3.61 -0.0024,0.028 -0.005,0.055 -0.0076,0.083 -0.738626,8.3709 4.431756,14.8951 5.416433,16.2493 0.491158,0.6751 1.074172,0.187 2.038778,-0.4718 0.222202,-1.3282 1.485045,-2.6674 4.793277,-2.6674 2.308206,0 3.578369,1.0912 4.080625,2.265 0.813716,0.4473 1.412079,0.886 2.135828,0.9972 0.09162,0.014 0.21441,-0.095 0.360576,-0.3102 1.030724,-1.5205 3.232906,-8.4147 3.975546,-15.8675 -1.386576,-0.1068 -3.392295,-1.6267 -4.522667,-3.8875"
         style="fill:#80564e;fill-opacity:1;fill-rule:nonzero;stroke:none"
         id="path5220"
         inkscape:connector-curvature="0" />
      <path
         d="m 32.181269,1012.4642 c 0,0.9178 -0.744057,1.6619 -1.661672,1.6619 -0.917852,0 -1.661909,-0.7441 -1.661909,-1.6619 0,-0.9179 0.744057,-1.662 1.661909,-1.662 0.917615,0 1.661672,0.7441 1.661672,1.662 z m 0.676995,1.8465 c 1.846565,-3.6931 0.6156,-7.0167 -2.70798,-8.2477 -0.220077,-0.081 -0.44039,-0.01 -0.65716,0.1795 -0.517841,0.4501 -1.01443,1.58 -1.435929,2.9698 -0.727055,2.3966 -1.230728,5.5582 -1.230728,7.3143 0,0.6756 0.188198,1.1297 0.499895,1.3941 1.164847,0.9885 4.07543,-0.6968 5.531902,-3.61"
         style="fill:#f1dcca;fill-opacity:1;fill-rule:nonzero;stroke:none"
         id="path5222"
         inkscape:connector-curvature="0" />
      <path
         d="m 48.615225,1014.1261 c -0.917852,0 -1.661909,-0.7441 -1.661909,-1.6619 0,-0.9179 0.744057,-1.662 1.661909,-1.662 0.917615,0 1.661908,0.7441 1.661908,1.662 0,0.9178 -0.744293,1.6619 -1.661908,1.6619 z m -0.309808,-8.0631 c -3.323816,1.231 -4.554781,4.5546 -2.708216,8.2477 1.130372,2.2608 3.136091,3.7807 4.522667,3.8875 0.878417,0.067 1.50913,-0.4305 1.50913,-1.6716 0,-1.7075 -0.475573,-4.7449 -1.170278,-7.1147 -0.163168,-0.5568 -0.33838,-1.0763 -0.522564,-1.5335 -0.501075,-1.2442 -1.066851,-2.0243 -1.630739,-1.8154"
         style="fill:#f1dcca;fill-opacity:1;fill-rule:nonzero;stroke:none"
         id="path5224"
         inkscape:connector-curvature="0" />
      <path
         d="m 28.857688,1012.4642 c 0,0.9178 0.744057,1.6619 1.661909,1.6619 0.917615,0 1.661672,-0.7441 1.661672,-1.6619 0,-0.9179 -0.744057,-1.662 -1.661672,-1.662 -0.917852,0 -1.661909,0.7441 -1.661909,1.662"
         style="fill:#241105;fill-opacity:1;fill-rule:nonzero;stroke:none"
         id="path5278"
         inkscape:connector-curvature="0" />
      <path
         d="m 48.615225,1010.8022 c -0.917852,0 -1.661909,0.7441 -1.661909,1.662 0,0.9178 0.744057,1.6619 1.661909,1.6619 0.917615,0 1.661908,-0.7441 1.661908,-1.6619 0,-0.9179 -0.744293,-1.662 -1.661908,-1.662"
         style="fill:#241105;fill-opacity:1;fill-rule:nonzero;stroke:none"
         id="path5280"
         inkscape:connector-curvature="0" />
      <path
         d="m 35.320429,1035.9146 c 1.107939,1.2926 7.016711,1.1079 8.124414,0 0.505798,-0.5056 0.625046,-1.55 0.203075,-2.5359 -0.502256,-1.1738 -1.772419,-2.265 -4.080625,-2.265 -3.308232,0 -4.571075,1.3392 -4.793277,2.6674 -0.137193,0.8218 0.12279,1.6395 0.546413,2.1335"
         style="fill:#241105;fill-opacity:1;fill-rule:nonzero;stroke:none"
         id="path5282"
         inkscape:connector-curvature="0" />
      <path
         d="m 62.404719,990.42981 c -5.048064,3.07399 -7.635853,7.01128 -8.745209,9.22646 -1.109355,2.21493 -4.018285,0.39223 -3.940597,1.96673 0.121373,2.4622 1.844676,2.8327 3.937292,2.9571 2.092616,0.1247 14.281125,-2.6983 17.239879,-7.25094 2.956393,-4.55266 3.452274,-9.96885 2.838327,-10.46142 -0.616309,-0.49305 -6.278793,0.48785 -11.329692,3.56207"
         style="fill:#4f332d;fill-opacity:1;fill-rule:nonzero;stroke:none"
         id="path5300"
         inkscape:connector-curvature="0" />
      <path
         d="m 37.413046,1019.1115 c -0.507452,-2.0302 -4.308495,9.848 -4.308495,12.3099 0,2.4622 3.07753,0 3.816156,-1.1077 0.738626,-1.1079 1.230965,-8.2477 0.492339,-11.2022"
         style="fill:#f1dcca;fill-opacity:1;fill-rule:nonzero;stroke:none"
         id="path5302"
         inkscape:connector-curvature="0" />
      <path
         d="m 41.348212,1019.1115 c -0.738389,2.9545 -0.246051,10.0943 0.492575,11.2022 0.738626,1.1077 3.816156,3.5699 3.816156,1.1077 0,-2.4619 -3.801043,-14.3401 -4.308731,-12.3099"
         style="fill:#f1dcca;fill-opacity:1;fill-rule:nonzero;stroke:none"
         id="path5304"
         inkscape:connector-curvature="0" />
    </g>
  </g>
</svg>
