<?xml version="1.0" encoding="UTF-8" standalone="no"?>
<!-- Created with Inkscape (http://www.inkscape.org/) -->

<svg
   xmlns:dc="http://purl.org/dc/elements/1.1/"
   xmlns:cc="http://creativecommons.org/ns#"
   xmlns:rdf="http://www.w3.org/1999/02/22-rdf-syntax-ns#"
   xmlns:svg="http://www.w3.org/2000/svg"
   xmlns="http://www.w3.org/2000/svg"
   xmlns:sodipodi="http://sodipodi.sourceforge.net/DTD/sodipodi-0.dtd"
   xmlns:inkscape="http://www.inkscape.org/namespaces/inkscape"
   width="80"
   height="80"
   id="svg5811"
   version="1.1"
   inkscape:version="0.48.4 r9939"
   sodipodi:docname="rabbit.svg">
  <defs
     id="defs5813" />
  <sodipodi:namedview
     id="base"
     pagecolor="#ffffff"
     bordercolor="#666666"
     borderopacity="1.0"
     inkscape:pageopacity="0.0"
     inkscape:pageshadow="2"
     inkscape:zoom="10.35"
     inkscape:cx="40"
     inkscape:cy="40"
     inkscape:document-units="px"
     inkscape:current-layer="layer1"
     showgrid="false"
     inkscape:window-width="1280"
     inkscape:window-height="1004"
     inkscape:window-x="1598"
     inkscape:window-y="-3"
     inkscape:window-maximized="1" />
  <metadata
     id="metadata5816">
    <rdf:RDF>
      <cc:Work
         rdf:about="">
        <dc:format>image/svg+xml</dc:format>
        <dc:type
           rdf:resource="http://purl.org/dc/dcmitype/StillImage" />
        <dc:title></dc:title>
      </cc:Work>
    </rdf:RDF>
  </metadata>
  <g
     inkscape:label="Layer 1"
     inkscape:groupmode="layer"
     id="layer1"
     transform="translate(0,-972.36218)">
    <g
       id="g6357">
      <path
         d="m 17.353953,982.27042 c 2.935256,-1.69568 9.99986,8.20757 12.294916,13.88983 2.295056,5.68205 2.459212,9.94375 1.475409,11.20635 -0.983512,1.2627 -8.19671,-4.1036 -11.967175,-9.62814 -3.770465,-5.52427 -5.082008,-13.57385 -1.80315,-15.46804 z m 9.69297,31.20158 c 2.073327,-2.9194 4.725195,-5.477 8.78816,-6.5909 -0.717441,-1.6875 -1.546181,-4.5015 -1.458084,-8.38849 0.1533,-6.73597 -9.64481,-20.36153 -17.299692,-21.43314 -7.6548737,-1.07191 -2.908828,19.13692 -0.153,23.42363 2.623377,4.0809 8.988747,9.6859 10.122616,12.9889"
         style="fill:#755a4b;fill-opacity:1;fill-rule:nonzero;stroke:none"
         id="path5202"
         inkscape:connector-curvature="0" />
      <path
         d="m 31.124278,1007.3666 c 0.983803,-1.2626 0.819647,-5.5243 -1.475409,-11.20635 -2.295056,-5.68226 -9.35966,-15.58551 -12.294916,-13.88983 -3.278858,1.89419 -1.967315,9.94377 1.80315,15.46804 3.770465,5.52454 10.983663,10.89084 11.967175,9.62814"
         style="fill:#4f3b30;fill-opacity:1;fill-rule:nonzero;stroke:none"
         id="path5204"
         inkscape:connector-curvature="0" />
      <path
         d="m 48.937898,1007.3666 c -0.983512,-1.2626 -0.819646,-5.5243 1.475409,-11.20635 2.295056,-5.68226 9.359951,-15.58551 12.295216,-13.88983 3.278558,1.89419 1.967015,9.94377 -1.80345,15.46804 -3.770464,5.52454 -10.983372,10.89084 -11.967175,9.62814 z m 4.258255,5.6481 c 1.514766,-3.3449 7.436389,-8.634 9.942007,-12.5316 2.755537,-4.28671 7.501582,-24.49554 -0.153,-23.42363 -7.654882,1.07161 -17.452992,14.69717 -17.299983,21.43314 0.08541,3.76199 -0.688368,6.51979 -1.388493,8.22319 4.009517,0.9506 6.823498,3.3834 8.899469,6.2989"
         style="fill:#755a4b;fill-opacity:1;fill-rule:nonzero;stroke:none"
         id="path5206"
         inkscape:connector-curvature="0" />
      <path
         d="m 39.867513,1021.304 c 5.664655,0 11.176019,8.4202 11.329319,13.7785 0.153,5.3584 -4.593046,10.5638 -10.563719,10.5638 -3.229518,0 -10.41041,-1.9902 -11.329019,-7.6549 -0.918609,-5.6644 3.674146,-16.6874 10.563419,-16.6874 z m 14.620806,-3.1385 c 0,1.1414 -0.925369,2.0668 -2.066869,2.0668 -1.141509,0 -2.066877,-0.9254 -2.066877,-2.0668 0,-1.1416 0.925368,-2.0669 2.066877,-2.0669 1.1415,0 2.066869,0.9253 2.066869,2.0669 z m -28.629012,0 c 0,-1.1416 0.925369,-2.0669 2.066869,-2.0669 1.141509,0 2.066877,0.9253 2.066877,2.0669 0,1.1414 -0.925368,2.0668 -2.066877,2.0668 -1.1415,0 -2.066869,-0.9254 -2.066869,-2.0668 z m 1.187616,-4.6935 c -2.334112,3.2865 -3.939327,7.0273 -6.010021,9.6692 -4.439745,5.6644 -2.143518,13.6255 0.91861,18.3714 3.061836,4.746 13.472255,7.6548 18.52431,8.1141 5.052346,0.4593 13.013237,-2.9089 16.075074,-5.9706 3.062127,-3.0619 5.970955,-11.4824 3.215127,-16.2282 -1.560871,-2.688 -2.929677,-9.2944 -6.57387,-14.4132 -2.075971,-2.9155 -4.889952,-5.3483 -8.899469,-6.2989 -1.379962,-0.3272 -2.900606,-0.48 -4.58218,-0.4153 -1.425187,0.055 -2.709131,0.2596 -3.879421,0.5806 -4.062965,1.1139 -6.714833,3.6715 -8.78816,6.5909"
         style="fill:#a37f6a;fill-opacity:1;fill-rule:nonzero;stroke:none"
         id="path5208"
         inkscape:connector-curvature="0" />
      <path
         d="m 40.743541,1028.8823 c 3.229518,0 3.791024,2.8081 2.948765,3.6506 -0.842541,0.8425 -5.335743,0.9829 -6.178292,0 -0.84225,-0.983 -0.84225,-3.6506 3.229527,-3.6506 z m -11.439447,9.1091 c 0.918609,5.6647 8.099501,7.6549 11.329019,7.6549 5.970673,0 10.716719,-5.2054 10.563719,-10.5638 -0.1533,-5.3583 -5.664664,-13.7785 -11.329319,-13.7785 -6.889273,0 -11.482028,11.023 -10.563419,16.6874"
         style="fill:#cab5a3;fill-opacity:1;fill-rule:nonzero;stroke:none"
         id="path5210"
         inkscape:connector-curvature="0" />
      <path
         d="m 29.993053,1018.1655 c 0,-1.1416 -0.925368,-2.0669 -2.066877,-2.0669 -1.1415,0 -2.066869,0.9253 -2.066869,2.0669 0,1.1414 0.925369,2.0668 2.066869,2.0668 1.141509,0 2.066877,-0.9254 2.066877,-2.0668"
         style="fill:#241105;fill-opacity:1;fill-rule:nonzero;stroke:none"
         id="path5272"
         inkscape:connector-curvature="0" />
      <path
         d="m 50.354573,1018.1655 c 0,1.1414 0.925368,2.0668 2.066877,2.0668 1.1415,0 2.066869,-0.9254 2.066869,-2.0668 0,-1.1416 -0.925369,-2.0669 -2.066869,-2.0669 -1.141509,0 -2.066877,0.9253 -2.066877,2.0669"
         style="fill:#241105;fill-opacity:1;fill-rule:nonzero;stroke:none"
         id="path5274"
         inkscape:connector-curvature="0" />
      <path
         d="m 43.692306,1032.5329 c 0.842259,-0.8425 0.280753,-3.6506 -2.948765,-3.6506 -4.071777,0 -4.071777,2.6676 -3.229527,3.6506 0.842549,0.9829 5.335751,0.8425 6.178292,0"
         style="fill:#241105;fill-opacity:1;fill-rule:nonzero;stroke:none"
         id="path5276"
         inkscape:connector-curvature="0" />
      <path
         d="m 60.905073,997.73846 c 3.770465,-5.52427 5.082008,-13.57385 1.80345,-15.46804 -2.935265,-1.69568 -10.00016,8.20757 -12.295216,13.88983 -2.295055,5.68205 -2.458921,9.94375 -1.475409,11.20635 0.983803,1.2627 8.196711,-4.1036 11.967175,-9.62814"
         style="fill:#4f3b30;fill-opacity:1;fill-rule:nonzero;stroke:none"
         id="path5306"
         inkscape:connector-curvature="0" />
    </g>
  </g>
</svg>
